<svg xmlns="http://www.w3.org/2000/svg" viewBox="0 0 64 64" role="img" aria-label="Redicat">
  <defs>
    <linearGradient id="rg" x1="0" y1="0" x2="1" y2="1"><stop offset="0" stop-color="#ff4d4d"/><stop offset="1" stop-color="#8b0f14"/></linearGradient>
    <radialGradient id="glow" cx="50%" cy="45%" r="60%"><stop offset="0" stop-color="#ff2a2a" stop-opacity=".5"/><stop offset="1" stop-color="#ff2a2a" stop-opacity="0"/></radialGradient>
  </defs>
  <circle cx="32" cy="32" r="30" fill="#0e0f12" stroke="url(#rg)" stroke-width="2.5"/>
  <circle cx="32" cy="32" r="26" fill="url(#glow)"/>
  <g transform="translate(0 2)">
    <path fill="url(#rg)" d="M13 10C13 10 23 12.5 26.5 16C30 14.8 34 14.8 37.5 16C41 12.5 51 10 51 10C52.5 15.5 52 21.5 49.5 25.5C51.5 29 52 32 52 34.5C52 43.5 43 50 32 50C21 50 12 43.5 12 34.5C12 32 12.5 29 14.5 25.5C12 21.5 11.5 15.5 13 10 Z"/>
    <ellipse cx="24.5" cy="34.5" rx="2.7" ry="3.9" fill="#0e0f12"/>
    <ellipse cx="39.5" cy="34.5" rx="2.7" ry="3.9" fill="#0e0f12"/>
    <path fill="#0e0f12" d="M29 40.5 L35 40.5 L32 44 Z"/>
  </g>
</svg>
